#!OML:ASF E:\inclinewalkrobotboard\Project 1\Capture day 1\Session 1\subject1.ASF
:FULLY-SPECIFIED
:DEGREES
445
root 9.04486 27.8829 -10.9034 -167.429 0.584091 -180.684
lowerback -5.74129 0.558791 -6.31768
upperback 1.30014 1.15822 1.31901
thorax 4.43277 0.38795 5.04176
lowerneck -0.499765 -6.52698 -10.4381
upperneck 10.569 -10.312 11.8926
head 4.36662 -5.23836 4.87841
rclavicle 3.47873e-015 -1.05356e-014
rhumerus -42.6038 -29.4593 -67.2615
rradius 23.4287
rwrist 19.4761
rhand -13.3153 -36.7209
rfingers 7.12502
rthumb 12.7892 -66.3091
lclavicle 3.47873e-015 -1.05356e-014
lhumerus -29.4942 12.4332 83.0516
lradius 16.6106
lwrist -32.4146
lhand -28.1484 -20.942
lfingers 7.12502
lthumb -1.52921 9.03224
rfemur -12.9864 10.2873 19.8687
rtibia 15.6124
rfoot -30.252 -2.72006
rtoes -15.5465
lfemur -12.2401 -12.8054 -20.8038
ltibia 15.5442
lfoot -32.4532 2.75421
ltoes -60.8316
446
root 9.04735 27.8835 -10.9064 -167.466 0.646522 -180.691
lowerback -5.76098 0.514256 -6.35256
upperback 1.25483 1.09907 1.37606
thorax 4.40283 0.359164 5.11618
lowerneck -0.577898 -6.63499 -10.6381
upperneck 10.4814 -10.4383 11.9913
head 4.38399 -5.29766 4.93015
rclavicle -2.03754e-014 1.98785e-016
rhumerus -42.5197 -29.5085 -67.0982
rradius 23.2501
rwrist 19.4309
rhand -13.2863 -36.7498
rfingers 7.12502
rthumb 12.8172 -66.3363
lclavicle -2.03754e-014 1.98785e-016
lhumerus -29.3793 12.8615 83.0408
lradius 16.4776
lwrist -32.598
lhand -28.0444 -20.9145
lfingers 7.12502
lthumb -1.42876 9.06051
rfemur -12.9412 10.3728 19.8717
rtibia 15.6007
rfoot -30.2717 -2.79219
rtoes -15.6261
lfemur -12.1238 -12.8596 -20.8147
ltibia 15.4386
lfoot -32.4515 2.89038
ltoes -60.8622
447
root 9.04716 27.8846 -10.912 -167.537 0.720308 -180.707
lowerback -5.80725 0.580414 -6.2815
upperback 1.18184 1.18631 1.30311
thorax 4.34306 0.409451 5.00664
lowerneck -0.457772 -6.77392 -10.6282
upperneck 10.3385 -10.6343 12.0645
head 4.34736 -5.39549 4.94299
rclavicle -1.11816e-014 -9.14409e-015
rhumerus -42.7398 -29.6239 -67.0574
rradius 23.3068
rwrist 19.1911
rhand -13.2755 -36.8733
rfingers 7.12502
rthumb 12.8276 -66.4591
lclavicle -1.11816e-014 -9.14409e-015
lhumerus -29.334 12.127 83.237
lradius 16.5182
lwrist -32.0623
lhand -28.1103 -20.6175
lfingers 7.12502
lthumb -1.49245 9.35706
rfemur -12.8485 10.4175 19.8585
rtibia 15.5868
rfoot -30.3349 -2.82653
rtoes -15.8437
lfemur -11.9915 -12.8606 -20.8605
ltibia 15.4037
lfoot -32.4684 2.95211
ltoes -60.8413
448
root 9.04639 27.8864 -10.9171 -167.655 0.741552 -180.671
lowerback -5.78625 0.560279 -6.12706
upperback 1.15729 1.1466 1.28864
thorax 4.31317 0.395646 4.89938
lowerneck -0.525619 -6.87411 -10.6636
upperneck 10.229 -10.7525 12.1323
head 4.34573 -5.44752 4.95935
rclavicle 2.48481e-016 1.0138e-014
rhumerus -42.7307 -29.5694 -67.1603
rradius 23.3681
rwrist 19.0056
rhand -13.3928 -36.6877
rfingers 7.12502
rthumb 12.7145 -66.2806
lclavicle 2.48481e-016 1.0138e-014
lhumerus -29.416 11.235 83.5405
lradius 16.9528
lwrist -31.1541
lhand -27.9791 -20.4721
lfingers 7.12502
lthumb -1.36572 9.50325
rfemur -12.7055 10.4144 19.9212
rtibia 15.5827
rfoot -30.3837 -2.83422
rtoes -15.9882
lfemur -11.9044 -12.7421 -20.8398
ltibia 15.5061
lfoot -32.3979 3.00562
ltoes -61.198
449
root 9.04847 27.8882 -10.9171 -167.751 0.689479 -180.622
lowerback -5.65188 0.545359 -5.92576
upperback 1.05316 1.10354 1.22811
thorax 4.13746 0.388939 4.71323
lowerneck -0.717098 -7.05405 -10.508
upperneck 10.1354 -10.9862 12.2289
head 4.37493 -5.54534 4.94005
rclavicle 2.23633e-015 -2.38542e-015
rhumerus -42.8809 -29.3675 -67.4186
rradius 23.6161
rwrist 18.6182
rhand -13.6014 -36.5656
rfingers 7.12502
rthumb 12.5134 -66.1709
lclavicle 2.23633e-015 -2.38542e-015
lhumerus -29.5274 10.4309 83.7228
lradius 17.3576
lwrist -30.4493
lhand -27.8542 -20.4048
lfingers 7.12502
lthumb -1.24508 9.57127
rfemur -12.6023 10.3743 20.0185
rtibia 15.5992
rfoot -30.3769 -2.83927
rtoes -15.8862
lfemur -11.854 -12.7144 -20.7764
ltibia 15.5935
lfoot -31.9574 2.90821
ltoes -61.5175
450
root 9.05035 27.8866 -10.9226 -167.899 0.803331 -180.813
lowerback -5.65106 0.604041 -6.10139
upperback 1.02733 1.19727 1.14443
thorax 4.0971 0.434389 4.73253
lowerneck -0.641715 -7.23723 -10.364
upperneck 9.90455 -11.2296 12.2977
head 4.31785 -5.66032 4.9253
rclavicle -1.29459e-014 -4.37326e-015
rhumerus -43.0397 -29.1824 -67.6504
rradius 23.9478
rwrist 18.0995
rhand -13.7751 -36.5007
rfingers 7.12502
rthumb 12.346 -66.1162
lclavicle -1.29459e-014 -4.37326e-015
lhumerus -29.3572 10.0781 83.8889
lradius 17.4164
lwrist -30.2665
lhand -28.1448 -20.6614
lfingers 7.12502
lthumb -1.52573 9.31288
rfemur -12.4211 10.3317 19.8187
rtibia 15.5859
rfoot -30.3623 -2.7383
rtoes -15.8084
lfemur -11.5873 -12.825 -21.0722
ltibia 15.4987
lfoot -32.479 3.17354
ltoes -61.2776
451
root 9.05252 27.8859 -10.9293 -168.083 0.94318 -181.01
lowerback -5.60385 0.687557 -6.28519
upperback 1.07014 1.32308 1.06879
thorax 4.09764 0.492339 4.76739
lowerneck -0.67909 -7.41969 -10.3464
upperneck 9.74403 -11.464 12.3943
head 4.30862 -5.7682 4.9347
rclavicle -2.26118e-015 7.15625e-015
rhumerus -43.1068 -29.1382 -67.8329
rradius 24.2713
rwrist 17.7046
rhand -13.5575 -36.3593
rfingers 7.12502
rthumb 12.5558 -65.9621
lclavicle -2.26118e-015 7.15625e-015
lhumerus -29.0543 9.62392 84.1508
lradius 17.5392
lwrist -29.9022
lhand -28.3062 -21.0357
lfingers 7.12502
lthumb -1.68169 8.93746
rfemur -12.1777 10.3168 19.6123
rtibia 15.5243
rfoot -30.3676 -2.64472
rtoes -15.5704
lfemur -11.3299 -12.8007 -21.3727
ltibia 15.4798
lfoot -32.6458 3.19635
ltoes -61.1009
452
root 9.05621 27.8841 -10.93 -168.101 0.947131 -181.035
lowerback -5.63257 0.718339 -6.27586
upperback 0.994547 1.3649 1.03761
thorax 4.03027 0.518226 4.73239
lowerneck -0.605857 -7.3949 -10.2371
upperneck 9.61968 -11.4011 12.2716
head 4.23856 -5.73897 4.88828
rclavicle -7.10655e-015 -1.98785e-016
rhumerus -43.1546 -28.9742 -68.0906
rradius 24.5627
rwrist 17.3625
rhand -13.2773 -36.2808
rfingers 7.12502
rthumb 12.8259 -65.8668
lclavicle -7.10655e-015 -1.98785e-016
lhumerus -29.023 8.76338 84.5102
lradius 18.0375
lwrist -29.0191
lhand -28.0058 -20.8714
lfingers 7.12502
lthumb -1.39149 9.10381
rfemur -12.1543 10.3067 19.5955
rtibia 15.5111
rfoot -30.3985 -2.66171
rtoes -15.5537
lfemur -11.3926 -12.7524 -21.38
ltibia 15.6331
lfoot -32.7045 3.15524
ltoes -61.117
453
root 9.05658 27.8815 -10.9338 -168.132 1.00377 -180.982
lowerback -5.70232 0.728202 -6.1746
upperback 0.916232 1.37368 1.03698
thorax 3.98857 0.528585 4.67565
lowerneck -0.620271 -7.51416 -10.2555
upperneck 9.49921 -11.5497 12.3208
head 4.22649 -5.80933 4.89586
rclavicle -6.16232e-015 -7.55382e-015
rhumerus -43.021 -28.6831 -68.5129
rradius 24.7485
rwrist 17.0242
rhand -13.4779 -36.4367
rfingers 7.12502
rthumb 12.6325 -66.0347
lclavicle -6.16232e-015 -7.55382e-015
lhumerus -29.0131 8.51309 84.6507
lradius 18.4379
lwrist -28.7441
lhand -27.6558 -20.5435
lfingers 7.12502
lthumb -1.05352 9.43361
rfemur -12.1198 10.2897 19.661
rtibia 15.5283
rfoot -30.415 -2.58487
rtoes -15.8246
lfemur -11.3215 -12.805 -21.3488
ltibia 15.6348
lfoot -32.7487 3.34977
ltoes -61.1576
